<!DOCTYPE svg PUBLIC "-//W3C//DTD SVG 1.1//EN" "http://www.w3.org/Graphics/SVG/1.1/DTD/svg11.dtd">
<!-- Uploaded to: SVG Repo, www.svgrepo.com, Transformed by: SVG Repo Mixer Tools -->
<svg width="800px" height="800px" viewBox="0 0 24 24" fill="none" xmlns="http://www.w3.org/2000/svg">
<g id="SVGRepo_bgCarrier" stroke-width="0"/>
<g id="SVGRepo_tracerCarrier" stroke-linecap="round" stroke-linejoin="round"/>
<g id="SVGRepo_iconCarrier"> <path d="M7 19.4V4.6C7 4.26863 7.26863 4 7.6 4H16.4C16.7314 4 17 4.26863 17 4.6V19.4C17 19.7314 16.7314 20 16.4 20H7.6C7.26863 20 7 19.7314 7 19.4Z" stroke="#A03232" stroke-width="1.5" stroke-linecap="round" stroke-linejoin="round"/> <path d="M14 20V22.5" stroke="#A03232" stroke-width="1.5" stroke-linecap="round" stroke-linejoin="round"/> <path d="M10 20V22.5" stroke="#A03232" stroke-width="1.5" stroke-linecap="round" stroke-linejoin="round"/> <path d="M14 4V1.5" stroke="#A03232" stroke-width="1.5" stroke-linecap="round" stroke-linejoin="round"/> <path d="M10 4V1.5" stroke="#A03232" stroke-width="1.5" stroke-linecap="round" stroke-linejoin="round"/> <path d="M7 12H4.5" stroke="#A03232" stroke-width="1.5" stroke-linecap="round" stroke-linejoin="round"/> <path d="M19.5 12H17" stroke="#A03232" stroke-width="1.5" stroke-linecap="round" stroke-linejoin="round"/> <path d="M7 6.5H4.5" stroke="#A03232" stroke-width="1.5" stroke-linecap="round" stroke-linejoin="round"/> <path d="M19.5 6.5H17" stroke="#A03232" stroke-width="1.5" stroke-linecap="round" stroke-linejoin="round"/> <path d="M7 17.5H4.5" stroke="#A03232" stroke-width="1.5" stroke-linecap="round" stroke-linejoin="round"/> <path d="M19.5 17.5H17" stroke="#A03232" stroke-width="1.5" stroke-linecap="round" stroke-linejoin="round"/> </g>
</svg>